<svg baseProfile="full" height="180px" version="1.1" viewBox="0 0 600 180" width="600px" xml:space="preserve" xmlns="http://www.w3.org/2000/svg" xmlns:rdkit="http://www.rdkit.org/xml" xmlns:xlink="http://www.w3.org/1999/xlink">
<!-- END OF HEADER -->
<rect height="180" style="opacity:1.0;fill:#FFFFFF;stroke:none" width="600" x="0" y="0"> </rect>
<rect height="180" style="opacity:1.0;fill:#FFFFFF;stroke:none" width="600" x="0" y="0"> </rect>
<rect height="180" style="opacity:1.0;fill:#FFFFFF;stroke:none" width="600" x="0" y="0"> </rect>
<path class="bond-0 atom-0 atom-1" d="M 34.4071,78.6244 L 44.042,75.0598" style="fill:none;fill-rule:evenodd;stroke:#000000;stroke-width:2.0px;stroke-linecap:butt;stroke-linejoin:miter;stroke-opacity:1"/>
<path class="bond-0 atom-0 atom-1" d="M 44.042,75.0598 L 53.6769,71.4952" style="fill:none;fill-rule:evenodd;stroke:#FF0000;stroke-width:2.0px;stroke-linecap:butt;stroke-linejoin:miter;stroke-opacity:1"/>
<path class="bond-1 atom-1 atom-2" d="M 61.3074,73.2508 L 68.8693,79.5282" style="fill:none;fill-rule:evenodd;stroke:#FF0000;stroke-width:2.0px;stroke-linecap:butt;stroke-linejoin:miter;stroke-opacity:1"/>
<path class="bond-1 atom-1 atom-2" d="M 68.8693,79.5282 L 76.4311,85.8055" style="fill:none;fill-rule:evenodd;stroke:#000000;stroke-width:2.0px;stroke-linecap:butt;stroke-linejoin:miter;stroke-opacity:1"/>
<path class="bond-2 atom-2 atom-3" d="M 76.4311,85.8055 L 99.5162,77.2648" style="fill:none;fill-rule:evenodd;stroke:#000000;stroke-width:2.0px;stroke-linecap:butt;stroke-linejoin:miter;stroke-opacity:1"/>
<path class="bond-3 atom-3 atom-4" d="M 99.5162,77.2648 L 107.078,83.5422" style="fill:none;fill-rule:evenodd;stroke:#000000;stroke-width:2.0px;stroke-linecap:butt;stroke-linejoin:miter;stroke-opacity:1"/>
<path class="bond-3 atom-3 atom-4" d="M 107.078,83.5422 L 114.64,89.8195" style="fill:none;fill-rule:evenodd;stroke:#FF0000;stroke-width:2.0px;stroke-linecap:butt;stroke-linejoin:miter;stroke-opacity:1"/>
<path class="bond-4 atom-4 atom-5" d="M 122.27,91.5751 L 131.905,88.0105" style="fill:none;fill-rule:evenodd;stroke:#FF0000;stroke-width:2.0px;stroke-linecap:butt;stroke-linejoin:miter;stroke-opacity:1"/>
<path class="bond-4 atom-4 atom-5" d="M 131.905,88.0105 L 141.54,84.4459" style="fill:none;fill-rule:evenodd;stroke:#000000;stroke-width:2.0px;stroke-linecap:butt;stroke-linejoin:miter;stroke-opacity:1"/>
<path class="bond-5 atom-5 atom-6" d="M 141.54,84.4459 L 160.479,100.168" style="fill:none;fill-rule:evenodd;stroke:#000000;stroke-width:2.0px;stroke-linecap:butt;stroke-linejoin:miter;stroke-opacity:1"/>
<path class="bond-6 atom-6 atom-7" d="M 160.479,100.168 L 170.392,96.5003" style="fill:none;fill-rule:evenodd;stroke:#000000;stroke-width:2.0px;stroke-linecap:butt;stroke-linejoin:miter;stroke-opacity:1"/>
<path class="bond-6 atom-6 atom-7" d="M 170.392,96.5003 L 180.305,92.8328" style="fill:none;fill-rule:evenodd;stroke:#0000FF;stroke-width:2.0px;stroke-linecap:butt;stroke-linejoin:miter;stroke-opacity:1"/>
<path class="bond-15 atom-6 atom-16" d="M 158.053,99.7532 L 156.334,109.814" style="fill:none;fill-rule:evenodd;stroke:#000000;stroke-width:2.0px;stroke-linecap:butt;stroke-linejoin:miter;stroke-opacity:1"/>
<path class="bond-15 atom-6 atom-16" d="M 156.334,109.814 L 154.614,119.876" style="fill:none;fill-rule:evenodd;stroke:#FF0000;stroke-width:2.0px;stroke-linecap:butt;stroke-linejoin:miter;stroke-opacity:1"/>
<path class="bond-15 atom-6 atom-16" d="M 162.905,100.582 L 161.186,110.644" style="fill:none;fill-rule:evenodd;stroke:#000000;stroke-width:2.0px;stroke-linecap:butt;stroke-linejoin:miter;stroke-opacity:1"/>
<path class="bond-15 atom-6 atom-16" d="M 161.186,110.644 L 159.467,120.705" style="fill:none;fill-rule:evenodd;stroke:#FF0000;stroke-width:2.0px;stroke-linecap:butt;stroke-linejoin:miter;stroke-opacity:1"/>
<path class="bond-7 atom-7 atom-8" d="M 186.823,94.3324 L 194.663,100.841" style="fill:none;fill-rule:evenodd;stroke:#0000FF;stroke-width:2.0px;stroke-linecap:butt;stroke-linejoin:miter;stroke-opacity:1"/>
<path class="bond-7 atom-7 atom-8" d="M 194.663,100.841 L 202.503,107.349" style="fill:none;fill-rule:evenodd;stroke:#000000;stroke-width:2.0px;stroke-linecap:butt;stroke-linejoin:miter;stroke-opacity:1"/>
<path class="bond-11 atom-7 atom-12" d="M 184.265,87.5263 L 185.988,77.4454" style="fill:none;fill-rule:evenodd;stroke:#0000FF;stroke-width:2.0px;stroke-linecap:butt;stroke-linejoin:miter;stroke-opacity:1"/>
<path class="bond-11 atom-7 atom-12" d="M 185.988,77.4454 L 187.71,67.3645" style="fill:none;fill-rule:evenodd;stroke:#000000;stroke-width:2.0px;stroke-linecap:butt;stroke-linejoin:miter;stroke-opacity:1"/>
<path class="bond-8 atom-8 atom-9" d="M 202.503,107.349 L 225.588,98.8082" style="fill:none;fill-rule:evenodd;stroke:#000000;stroke-width:2.0px;stroke-linecap:butt;stroke-linejoin:miter;stroke-opacity:1"/>
<path class="bond-9 atom-9 atom-10" d="M 225.588,98.8082 L 244.527,114.53" style="fill:none;fill-rule:evenodd;stroke:#000000;stroke-width:2.0px;stroke-linecap:butt;stroke-linejoin:miter;stroke-opacity:1"/>
<path class="bond-10 atom-10 atom-11" d="M 244.527,114.53 L 267.612,105.989" style="fill:none;fill-rule:evenodd;stroke:#000000;stroke-width:2.0px;stroke-linecap:butt;stroke-linejoin:miter;stroke-opacity:1"/>
<path class="bond-12 atom-12 atom-13" d="M 187.71,67.3645 L 210.795,58.8238" style="fill:none;fill-rule:evenodd;stroke:#000000;stroke-width:2.0px;stroke-linecap:butt;stroke-linejoin:miter;stroke-opacity:1"/>
<path class="bond-13 atom-13 atom-14" d="M 210.795,58.8238 L 214.941,34.5612" style="fill:none;fill-rule:evenodd;stroke:#000000;stroke-width:2.0px;stroke-linecap:butt;stroke-linejoin:miter;stroke-opacity:1"/>
<path class="bond-14 atom-14 atom-15" d="M 214.941,34.5612 L 238.026,26.0205" style="fill:none;fill-rule:evenodd;stroke:#000000;stroke-width:2.0px;stroke-linecap:butt;stroke-linejoin:miter;stroke-opacity:1"/>
<path class="atom-1" d="M 54.2923 70.1034 Q 54.2923 68.4296, 55.1193 67.4943 Q 55.9464 66.5589, 57.4922 66.5589 Q 59.0379 66.5589, 59.865 67.4943 Q 60.692 68.4296, 60.692 70.1034 Q 60.692 71.7968, 59.8551 72.7617 Q 59.0182 73.7167, 57.4922 73.7167 Q 55.9562 73.7167, 55.1193 72.7617 Q 54.2923 71.8067, 54.2923 70.1034 M 57.4922 72.9291 Q 58.5555 72.9291, 59.1265 72.2202 Q 59.7074 71.5015, 59.7074 70.1034 Q 59.7074 68.7348, 59.1265 68.0456 Q 58.5555 67.3466, 57.4922 67.3466 Q 56.4288 67.3466, 55.8479 68.0358 Q 55.2769 68.725, 55.2769 70.1034 Q 55.2769 71.5113, 55.8479 72.2202 Q 56.4288 72.9291, 57.4922 72.9291 " fill="#FF0000"/>
<path class="atom-4" d="M 115.255 93.0063 Q 115.255 91.3326, 116.082 90.3972 Q 116.909 89.4619, 118.455 89.4619 Q 120.001 89.4619, 120.828 90.3972 Q 121.655 91.3326, 121.655 93.0063 Q 121.655 94.6998, 120.818 95.6647 Q 119.981 96.6197, 118.455 96.6197 Q 116.919 96.6197, 116.082 95.6647 Q 115.255 94.7097, 115.255 93.0063 M 118.455 95.8321 Q 119.518 95.8321, 120.09 95.1232 Q 120.67 94.4044, 120.67 93.0063 Q 120.67 91.6378, 120.09 90.9486 Q 119.518 90.2495, 118.455 90.2495 Q 117.392 90.2495, 116.811 90.9387 Q 116.24 91.6279, 116.24 93.0063 Q 116.24 94.4143, 116.811 95.1232 Q 117.392 95.8321, 118.455 95.8321 " fill="#FF0000"/>
<path class="atom-7" d="M 182.023 88.1417 L 184.308 91.8338 Q 184.534 92.1981, 184.898 92.8578 Q 185.263 93.5174, 185.282 93.5568 L 185.282 88.1417 L 186.208 88.1417 L 186.208 95.1124 L 185.253 95.1124 L 182.801 91.0757 Q 182.516 90.6031, 182.21 90.0616 Q 181.915 89.5201, 181.826 89.3527 L 181.826 95.1124 L 180.921 95.1124 L 180.921 88.1417 L 182.023 88.1417 " fill="#0000FF"/>
<path class="atom-16" d="M 153.133 124.45 Q 153.133 122.776, 153.96 121.841 Q 154.787 120.906, 156.333 120.906 Q 157.879 120.906, 158.706 121.841 Q 159.533 122.776, 159.533 124.45 Q 159.533 126.144, 158.696 127.108 Q 157.859 128.063, 156.333 128.063 Q 154.797 128.063, 153.96 127.108 Q 153.133 126.153, 153.133 124.45 M 156.333 127.276 Q 157.396 127.276, 157.968 126.567 Q 158.548 125.848, 158.548 124.45 Q 158.548 123.081, 157.968 122.392 Q 157.396 121.693, 156.333 121.693 Q 155.27 121.693, 154.689 122.382 Q 154.118 123.072, 154.118 124.45 Q 154.118 125.858, 154.689 126.567 Q 155.27 127.276, 156.333 127.276 " fill="#FF0000"/>
<path d="M 139.855 174.128 L 138.671 170.8 L 134.175 170.8 L 133.039 174.128 L 131.503 174.128 L 135.407 162.8 L 137.295 162.8 L 141.343 174.128 L 139.855 174.128 M 134.623 169.52 L 138.207 169.52 L 136.383 164.384 L 134.623 169.52 " fill="#000000"/>
<path d="M 142.703 162.8 L 144.223 162.8 L 144.223 172.8 L 149.407 172.8 L 149.407 174.128 L 142.703 174.128 L 142.703 162.8 " fill="#000000"/>
<path d="M 150.207 168.448 Q 150.207 165.632, 151.519 164.16 Q 152.847 162.672, 155.359 162.672 Q 157.695 162.672, 158.943 164.32 L 157.887 165.184 Q 156.975 163.984, 155.359 163.984 Q 153.647 163.984, 152.735 165.136 Q 151.839 166.272, 151.839 168.448 Q 151.839 170.688, 152.767 171.84 Q 153.711 172.992, 155.535 172.992 Q 156.783 172.992, 158.239 172.24 L 158.687 173.44 Q 158.095 173.824, 157.199 174.048 Q 156.303 174.272, 155.311 174.272 Q 152.847 174.272, 151.519 172.768 Q 150.207 171.264, 150.207 168.448 " fill="#000000"/>
<path class="bond-0 atom-0 atom-1" d="M 394.492,114.798 L 396.793,104.879" style="fill:none;fill-rule:evenodd;stroke:#FF0000;stroke-width:2.0px;stroke-linecap:butt;stroke-linejoin:miter;stroke-opacity:1"/>
<path class="bond-0 atom-0 atom-1" d="M 396.793,104.879 L 399.094,94.9607" style="fill:none;fill-rule:evenodd;stroke:#000000;stroke-width:2.0px;stroke-linecap:butt;stroke-linejoin:miter;stroke-opacity:1"/>
<path class="bond-0 atom-0 atom-1" d="M 389.697,113.685 L 391.998,103.767" style="fill:none;fill-rule:evenodd;stroke:#FF0000;stroke-width:2.0px;stroke-linecap:butt;stroke-linejoin:miter;stroke-opacity:1"/>
<path class="bond-0 atom-0 atom-1" d="M 391.998,103.767 L 394.299,93.8481" style="fill:none;fill-rule:evenodd;stroke:#000000;stroke-width:2.0px;stroke-linecap:butt;stroke-linejoin:miter;stroke-opacity:1"/>
<path class="bond-1 atom-1 atom-2" d="M 396.697,94.4044 L 378.713,77.5981" style="fill:none;fill-rule:evenodd;stroke:#000000;stroke-width:2.0px;stroke-linecap:butt;stroke-linejoin:miter;stroke-opacity:1"/>
<path class="bond-5 atom-1 atom-6" d="M 396.697,94.4044 L 406.562,91.3998" style="fill:none;fill-rule:evenodd;stroke:#000000;stroke-width:2.0px;stroke-linecap:butt;stroke-linejoin:miter;stroke-opacity:1"/>
<path class="bond-5 atom-1 atom-6" d="M 406.562,91.3998 L 416.428,88.3951" style="fill:none;fill-rule:evenodd;stroke:#FF0000;stroke-width:2.0px;stroke-linecap:butt;stroke-linejoin:miter;stroke-opacity:1"/>
<path class="bond-2 atom-2 atom-3" d="M 378.713,77.5981 L 355.166,84.7693" style="fill:none;fill-rule:evenodd;stroke:#000000;stroke-width:2.0px;stroke-linecap:butt;stroke-linejoin:miter;stroke-opacity:1"/>
<path class="bond-3 atom-3 atom-4" d="M 355.166,84.7693 L 337.183,67.9631" style="fill:none;fill-rule:evenodd;stroke:#000000;stroke-width:2.0px;stroke-linecap:butt;stroke-linejoin:miter;stroke-opacity:1"/>
<path class="bond-4 atom-4 atom-5" d="M 337.183,67.9631 L 313.636,75.1343" style="fill:none;fill-rule:evenodd;stroke:#000000;stroke-width:2.0px;stroke-linecap:butt;stroke-linejoin:miter;stroke-opacity:1"/>
<path class="bond-6 atom-6 atom-7" d="M 424.058,90.7986 L 431.143,97.419" style="fill:none;fill-rule:evenodd;stroke:#FF0000;stroke-width:2.0px;stroke-linecap:butt;stroke-linejoin:miter;stroke-opacity:1"/>
<path class="bond-6 atom-6 atom-7" d="M 431.143,97.419 L 438.227,104.039" style="fill:none;fill-rule:evenodd;stroke:#000000;stroke-width:2.0px;stroke-linecap:butt;stroke-linejoin:miter;stroke-opacity:1"/>
<path class="bond-7 atom-7 atom-8" d="M 438.227,104.039 L 461.773,96.8682" style="fill:none;fill-rule:evenodd;stroke:#000000;stroke-width:2.0px;stroke-linecap:butt;stroke-linejoin:miter;stroke-opacity:1"/>
<path class="bond-8 atom-8 atom-9" d="M 461.773,96.8682 L 464.062,87.0037" style="fill:none;fill-rule:evenodd;stroke:#000000;stroke-width:2.0px;stroke-linecap:butt;stroke-linejoin:miter;stroke-opacity:1"/>
<path class="bond-8 atom-8 atom-9" d="M 464.062,87.0037 L 466.35,77.1392" style="fill:none;fill-rule:evenodd;stroke:#FF0000;stroke-width:2.0px;stroke-linecap:butt;stroke-linejoin:miter;stroke-opacity:1"/>
<path class="bond-15 atom-8 atom-16" d="M 461.773,96.8682 L 479.757,113.674" style="fill:none;fill-rule:evenodd;stroke:#000000;stroke-width:2.0px;stroke-linecap:butt;stroke-linejoin:miter;stroke-opacity:1"/>
<path class="bond-9 atom-9 atom-10" d="M 471.151,71.7289 L 481.017,68.7242" style="fill:none;fill-rule:evenodd;stroke:#FF0000;stroke-width:2.0px;stroke-linecap:butt;stroke-linejoin:miter;stroke-opacity:1"/>
<path class="bond-9 atom-9 atom-10" d="M 481.017,68.7242 L 490.882,65.7196" style="fill:none;fill-rule:evenodd;stroke:#000000;stroke-width:2.0px;stroke-linecap:butt;stroke-linejoin:miter;stroke-opacity:1"/>
<path class="bond-10 atom-10 atom-11" d="M 490.882,65.7196 L 496.445,41.7422" style="fill:none;fill-rule:evenodd;stroke:#000000;stroke-width:2.0px;stroke-linecap:butt;stroke-linejoin:miter;stroke-opacity:1"/>
<path class="bond-14 atom-10 atom-15" d="M 489.202,67.518 L 496.286,74.1384" style="fill:none;fill-rule:evenodd;stroke:#000000;stroke-width:2.0px;stroke-linecap:butt;stroke-linejoin:miter;stroke-opacity:1"/>
<path class="bond-14 atom-10 atom-15" d="M 496.286,74.1384 L 503.37,80.7588" style="fill:none;fill-rule:evenodd;stroke:#FF0000;stroke-width:2.0px;stroke-linecap:butt;stroke-linejoin:miter;stroke-opacity:1"/>
<path class="bond-14 atom-10 atom-15" d="M 492.563,63.9212 L 499.647,70.5417" style="fill:none;fill-rule:evenodd;stroke:#000000;stroke-width:2.0px;stroke-linecap:butt;stroke-linejoin:miter;stroke-opacity:1"/>
<path class="bond-14 atom-10 atom-15" d="M 499.647,70.5417 L 506.732,77.1621" style="fill:none;fill-rule:evenodd;stroke:#FF0000;stroke-width:2.0px;stroke-linecap:butt;stroke-linejoin:miter;stroke-opacity:1"/>
<path class="bond-11 atom-11 atom-12" d="M 496.445,41.7422 L 519.992,34.571" style="fill:none;fill-rule:evenodd;stroke:#000000;stroke-width:2.0px;stroke-linecap:butt;stroke-linejoin:miter;stroke-opacity:1"/>
<path class="bond-12 atom-12 atom-13" d="M 519.992,34.571 L 525.555,10.5935" style="fill:none;fill-rule:evenodd;stroke:#000000;stroke-width:2.0px;stroke-linecap:butt;stroke-linejoin:miter;stroke-opacity:1"/>
<path class="bond-13 atom-13 atom-14" d="M 525.555,10.5935 L 549.101,3.42236" style="fill:none;fill-rule:evenodd;stroke:#000000;stroke-width:2.0px;stroke-linecap:butt;stroke-linejoin:miter;stroke-opacity:1"/>
<path class="bond-16 atom-16 atom-17" d="M 479.757,113.674 L 489.623,110.67" style="fill:none;fill-rule:evenodd;stroke:#000000;stroke-width:2.0px;stroke-linecap:butt;stroke-linejoin:miter;stroke-opacity:1"/>
<path class="bond-16 atom-16 atom-17" d="M 489.623,110.67 L 499.488,107.665" style="fill:none;fill-rule:evenodd;stroke:#FF0000;stroke-width:2.0px;stroke-linecap:butt;stroke-linejoin:miter;stroke-opacity:1"/>
<path class="bond-17 atom-17 atom-18" d="M 507.119,110.069 L 514.203,116.689" style="fill:none;fill-rule:evenodd;stroke:#FF0000;stroke-width:2.0px;stroke-linecap:butt;stroke-linejoin:miter;stroke-opacity:1"/>
<path class="bond-17 atom-17 atom-18" d="M 514.203,116.689 L 521.287,123.31" style="fill:none;fill-rule:evenodd;stroke:#000000;stroke-width:2.0px;stroke-linecap:butt;stroke-linejoin:miter;stroke-opacity:1"/>
<path class="bond-18 atom-18 atom-19" d="M 521.287,123.31 L 544.834,116.138" style="fill:none;fill-rule:evenodd;stroke:#000000;stroke-width:2.0px;stroke-linecap:butt;stroke-linejoin:miter;stroke-opacity:1"/>
<path class="bond-19 atom-19 atom-20" d="M 544.834,116.138 L 551.918,122.759" style="fill:none;fill-rule:evenodd;stroke:#000000;stroke-width:2.0px;stroke-linecap:butt;stroke-linejoin:miter;stroke-opacity:1"/>
<path class="bond-19 atom-19 atom-20" d="M 551.918,122.759 L 559.002,129.379" style="fill:none;fill-rule:evenodd;stroke:#FF0000;stroke-width:2.0px;stroke-linecap:butt;stroke-linejoin:miter;stroke-opacity:1"/>
<path class="bond-20 atom-20 atom-21" d="M 566.632,131.783 L 576.498,128.778" style="fill:none;fill-rule:evenodd;stroke:#FF0000;stroke-width:2.0px;stroke-linecap:butt;stroke-linejoin:miter;stroke-opacity:1"/>
<path class="bond-20 atom-20 atom-21" d="M 576.498,128.778 L 586.364,125.773" style="fill:none;fill-rule:evenodd;stroke:#000000;stroke-width:2.0px;stroke-linecap:butt;stroke-linejoin:miter;stroke-opacity:1"/>
<path class="atom-0" d="M 387.934 118.402 Q 387.934 116.728, 388.761 115.792 Q 389.588 114.857, 391.134 114.857 Q 392.68 114.857, 393.507 115.792 Q 394.334 116.728, 394.334 118.402 Q 394.334 120.095, 393.497 121.06 Q 392.66 122.015, 391.134 122.015 Q 389.598 122.015, 388.761 121.06 Q 387.934 120.105, 387.934 118.402 M 391.134 121.227 Q 392.197 121.227, 392.768 120.518 Q 393.349 119.8, 393.349 118.402 Q 393.349 117.033, 392.768 116.344 Q 392.197 115.645, 391.134 115.645 Q 390.07 115.645, 389.49 116.334 Q 388.919 117.023, 388.919 118.402 Q 388.919 119.809, 389.49 120.518 Q 390.07 121.227, 391.134 121.227 " fill="#FF0000"/>
<path class="atom-6" d="M 417.043 87.2529 Q 417.043 85.5791, 417.87 84.6438 Q 418.697 83.7084, 420.243 83.7084 Q 421.789 83.7084, 422.616 84.6438 Q 423.443 85.5791, 423.443 87.2529 Q 423.443 88.9463, 422.606 89.9112 Q 421.769 90.8663, 420.243 90.8663 Q 418.707 90.8663, 417.87 89.9112 Q 417.043 88.9562, 417.043 87.2529 M 420.243 90.0786 Q 421.306 90.0786, 421.877 89.3697 Q 422.458 88.651, 422.458 87.2529 Q 422.458 85.8843, 421.877 85.1951 Q 421.306 84.4961, 420.243 84.4961 Q 419.18 84.4961, 418.599 85.1853 Q 418.028 85.8745, 418.028 87.2529 Q 418.028 88.6608, 418.599 89.3697 Q 419.18 90.0786, 420.243 90.0786 " fill="#FF0000"/>
<path class="atom-9" d="M 464.136 72.9105 Q 464.136 71.2367, 464.963 70.3014 Q 465.79 69.366, 467.336 69.366 Q 468.882 69.366, 469.709 70.3014 Q 470.536 71.2367, 470.536 72.9105 Q 470.536 74.604, 469.699 75.5688 Q 468.862 76.5239, 467.336 76.5239 Q 465.8 76.5239, 464.963 75.5688 Q 464.136 74.6138, 464.136 72.9105 M 467.336 75.7362 Q 468.399 75.7362, 468.97 75.0273 Q 469.551 74.3086, 469.551 72.9105 Q 469.551 71.5419, 468.97 70.8527 Q 468.399 70.1537, 467.336 70.1537 Q 466.273 70.1537, 465.692 70.8429 Q 465.121 71.5321, 465.121 72.9105 Q 465.121 74.3184, 465.692 75.0273 Q 466.273 75.7362, 467.336 75.7362 " fill="#FF0000"/>
<path class="atom-15" d="M 505.666 82.5455 Q 505.666 80.8718, 506.493 79.9364 Q 507.32 79.0011, 508.866 79.0011 Q 510.412 79.0011, 511.239 79.9364 Q 512.066 80.8718, 512.066 82.5455 Q 512.066 84.239, 511.229 85.2039 Q 510.392 86.1589, 508.866 86.1589 Q 507.33 86.1589, 506.493 85.2039 Q 505.666 84.2489, 505.666 82.5455 M 508.866 85.3713 Q 509.93 85.3713, 510.501 84.6624 Q 511.081 83.9436, 511.081 82.5455 Q 511.081 81.177, 510.501 80.4878 Q 509.93 79.7887, 508.866 79.7887 Q 507.803 79.7887, 507.222 80.4779 Q 506.651 81.1671, 506.651 82.5455 Q 506.651 83.9535, 507.222 84.6624 Q 507.803 85.3713, 508.866 85.3713 " fill="#FF0000"/>
<path class="atom-17" d="M 500.104 106.523 Q 500.104 104.849, 500.931 103.914 Q 501.758 102.979, 503.303 102.979 Q 504.849 102.979, 505.676 103.914 Q 506.503 104.849, 506.503 106.523 Q 506.503 108.216, 505.666 109.181 Q 504.829 110.136, 503.303 110.136 Q 501.767 110.136, 500.931 109.181 Q 500.104 108.226, 500.104 106.523 M 503.303 109.349 Q 504.367 109.349, 504.938 108.64 Q 505.519 107.921, 505.519 106.523 Q 505.519 105.154, 504.938 104.465 Q 504.367 103.766, 503.303 103.766 Q 502.24 103.766, 501.659 104.455 Q 501.088 105.145, 501.088 106.523 Q 501.088 107.931, 501.659 108.64 Q 502.24 109.349, 503.303 109.349 " fill="#FF0000"/>
<path class="atom-20" d="M 559.617 132.964 Q 559.617 131.29, 560.444 130.355 Q 561.271 129.42, 562.817 129.42 Q 564.363 129.42, 565.19 130.355 Q 566.017 131.29, 566.017 132.964 Q 566.017 134.658, 565.18 135.623 Q 564.343 136.578, 562.817 136.578 Q 561.281 136.578, 560.444 135.623 Q 559.617 134.668, 559.617 132.964 M 562.817 135.79 Q 563.881 135.79, 564.452 135.081 Q 565.032 134.362, 565.032 132.964 Q 565.032 131.596, 564.452 130.907 Q 563.881 130.207, 562.817 130.207 Q 561.754 130.207, 561.173 130.897 Q 560.602 131.586, 560.602 132.964 Q 560.602 134.372, 561.173 135.081 Q 561.754 135.79, 562.817 135.79 " fill="#FF0000"/>
<path d="M 432.209 162.8 Q 434.721 162.8, 436.065 164.288 Q 437.409 165.76, 437.409 168.432 Q 437.409 171.12, 436.049 172.624 Q 434.705 174.128, 432.209 174.128 L 428.545 174.128 L 428.545 162.8 L 432.209 162.8 M 432.209 172.848 Q 433.937 172.848, 434.865 171.744 Q 435.809 170.64, 435.809 168.432 Q 435.809 166.24, 434.865 165.168 Q 433.937 164.08, 432.209 164.08 L 430.081 164.08 L 430.081 172.848 L 432.209 172.848 " fill="#000000"/>
<path d="M 451.393 174.128 L 449.937 174.128 L 448.753 164.864 L 445.697 174.128 L 444.145 174.128 L 441.089 164.864 L 439.905 174.128 L 438.449 174.128 L 439.889 162.8 L 441.793 162.8 L 444.929 171.92 L 448.049 162.8 L 449.953 162.8 L 451.393 174.128 " fill="#000000"/>
<path d="M 461.297 168.576 L 461.297 173.36 Q 459.681 174.272, 457.297 174.272 Q 454.833 174.272, 453.505 172.768 Q 452.193 171.264, 452.193 168.448 Q 452.193 165.632, 453.505 164.16 Q 454.833 162.672, 457.345 162.672 Q 458.657 162.672, 459.617 163.088 Q 460.577 163.488, 461.249 164.32 L 460.209 165.184 Q 459.153 163.952, 457.345 163.952 Q 455.633 163.952, 454.721 165.104 Q 453.825 166.256, 453.825 168.448 Q 453.825 170.688, 454.753 171.84 Q 455.697 172.992, 457.521 172.992 Q 458.705 172.992, 459.761 172.608 L 459.761 168.576 L 461.297 168.576 " fill="#000000"/>
</svg>